<svg width="166" height="159" viewBox="0 0 166 159" fill="none" xmlns="http://www.w3.org/2000/svg">
<path fill-rule="evenodd" clip-rule="evenodd" d="M75.53 0H0V158.53H75.53V133.909C48.3218 130.077 27.39 106.7 27.39 78.435C27.39 50.1695 48.3218 26.793 75.53 22.9605V0ZM92.13 158.53V133.786C118.933 129.6 139.44 106.412 139.44 78.435C139.44 50.4576 118.933 27.27 92.13 23.0838V0H166V158.53H92.13Z" fill="black"/>
<path d="M63.8264 64.6795C63.8264 58.8987 68.4274 54.8876 73.2055 54.8876C77.9835 54.8876 82.5845 58.8987 82.5845 64.6795C82.5845 70.4603 77.9835 74.4715 73.2055 74.4715C68.4274 74.4715 63.8264 70.4603 63.8264 64.6795ZM101.166 55.1825L72.1437 98.1256H67.7196L96.8006 55.1825H101.166ZM77.1576 67.275C77.3346 65.5644 77.3346 63.7947 77.1576 62.0841C76.9807 58.9577 75.6829 57.3651 73.2055 57.3651C70.728 57.3651 69.4302 58.9577 69.1943 62.0841C69.0763 63.7947 69.0763 65.5644 69.1943 67.275C69.4302 70.4014 70.728 71.994 73.2055 71.994C75.6829 71.994 76.9807 70.4014 77.1576 67.275ZM86.3597 88.6286C86.3597 82.8478 90.9608 78.8366 95.7388 78.8366C100.517 78.8366 105.118 82.8478 105.118 88.6286C105.118 94.4094 100.517 98.4205 95.7388 98.4205C90.9608 98.4205 86.3597 94.4094 86.3597 88.6286ZM99.691 91.224C99.8679 89.5134 99.8679 87.7438 99.691 86.0331C99.514 82.9068 98.2163 81.3141 95.7388 81.3141C93.2613 81.3141 91.9636 82.9068 91.7276 86.0331C91.6096 87.7438 91.6096 89.5134 91.7276 91.224C91.9636 94.3504 93.2613 95.9431 95.7388 95.9431C98.2163 95.9431 99.514 94.3504 99.691 91.224Z" fill="black"/>
<path d="M101.166 55.1825L101.899 55.678L102.832 54.2977H101.166V55.1825ZM72.1437 98.1256V99.0104H72.6136L72.8768 98.6211L72.1437 98.1256ZM67.7196 98.1256L66.987 97.6295L66.0518 99.0104H67.7196V98.1256ZM96.8006 55.1825V54.2977H96.3312L96.0679 54.6864L96.8006 55.1825ZM77.1576 67.275L76.2775 67.184L76.2754 67.2044L76.2742 67.225L77.1576 67.275ZM77.1576 62.0841L76.2742 62.1341L76.2754 62.1546L76.2775 62.1751L77.1576 62.0841ZM69.1943 62.0841L68.312 62.0175L68.3116 62.0232L69.1943 62.0841ZM69.1943 67.275L68.3116 67.3359L68.312 67.3416L69.1943 67.275ZM99.691 91.224L98.8109 91.133L98.8087 91.1535L98.8076 91.174L99.691 91.224ZM99.691 86.0331L98.8076 86.0831L98.8087 86.1037L98.8109 86.1242L99.691 86.0331ZM91.7276 86.0331L90.8453 85.9665L90.8449 85.9722L91.7276 86.0331ZM91.7276 91.224L90.8449 91.2849L90.8453 91.2906L91.7276 91.224ZM64.7112 64.6795C64.7112 59.398 68.9055 55.7724 73.2055 55.7724V54.0028C67.9494 54.0028 62.9416 58.3995 62.9416 64.6795H64.7112ZM73.2055 55.7724C77.5055 55.7724 81.6997 59.398 81.6997 64.6795H83.4693C83.4693 58.3995 78.4615 54.0028 73.2055 54.0028V55.7724ZM81.6997 64.6795C81.6997 69.9611 77.5055 73.5867 73.2055 73.5867V75.3563C78.4615 75.3563 83.4693 70.9596 83.4693 64.6795H81.6997ZM73.2055 73.5867C68.9055 73.5867 64.7112 69.9611 64.7112 64.6795H62.9416C62.9416 70.9596 67.9494 75.3563 73.2055 75.3563V73.5867ZM100.433 54.6871L71.4106 97.6302L72.8768 98.6211L101.899 55.678L100.433 54.6871ZM72.1437 97.2408H67.7196V99.0104H72.1437V97.2408ZM68.4522 98.6217L97.5332 55.6786L96.0679 54.6864L66.987 97.6295L68.4522 98.6217ZM96.8006 56.0673H101.166V54.2977H96.8006V56.0673ZM78.0378 67.366C78.221 65.5949 78.221 63.7642 78.0378 61.993L76.2775 62.1751C76.4482 63.8252 76.4482 65.5338 76.2775 67.184L78.0378 67.366ZM78.041 62.0341C77.9473 60.3782 77.5519 58.9811 76.7245 57.9864C75.867 56.9555 74.6505 56.4802 73.2055 56.4802V58.2499C74.2379 58.2499 74.909 58.571 75.364 59.118C75.8491 59.7012 76.191 60.6636 76.2742 62.1341L78.041 62.0341ZM73.2055 56.4802C71.7592 56.4802 70.5456 56.9561 69.6822 57.9826C68.8495 58.9726 68.4367 60.3648 68.312 62.0175L70.0766 62.1507C70.1878 60.677 70.5419 59.7097 71.0364 59.1217C71.5002 58.5704 72.1742 58.2499 73.2055 58.2499V56.4802ZM68.3116 62.0232C68.1908 63.7744 68.1908 65.5847 68.3116 67.3359L70.077 67.2141C69.9618 65.544 69.9618 63.8151 70.077 62.145L68.3116 62.0232ZM68.312 67.3416C68.4367 68.9942 68.8495 70.3865 69.6822 71.3764C70.5456 72.403 71.7592 72.8788 73.2055 72.8788V71.1092C72.1742 71.1092 71.5002 70.7887 71.0364 70.2373C70.5419 69.6494 70.1878 68.6821 70.0766 67.2084L68.312 67.3416ZM73.2055 72.8788C74.6505 72.8788 75.867 72.4036 76.7245 71.3727C77.5519 70.378 77.9473 68.9808 78.041 67.325L76.2742 67.225C76.191 68.6955 75.8491 69.6579 75.364 70.2411C74.909 70.7881 74.2379 71.1092 73.2055 71.1092V72.8788ZM87.2445 88.6286C87.2445 83.347 91.4388 79.7214 95.7388 79.7214V77.9518C90.4828 77.9518 85.4749 82.3485 85.4749 88.6286H87.2445ZM95.7388 79.7214C100.039 79.7214 104.233 83.347 104.233 88.6286H106.003C106.003 82.3485 100.995 77.9518 95.7388 77.9518V79.7214ZM104.233 88.6286C104.233 93.9101 100.039 97.5357 95.7388 97.5357V99.3054C100.995 99.3054 106.003 94.9086 106.003 88.6286H104.233ZM95.7388 97.5357C91.4388 97.5357 87.2445 93.9101 87.2445 88.6286H85.4749C85.4749 94.9086 90.4828 99.3054 95.7388 99.3054V97.5357ZM100.571 91.3151C100.754 89.5439 100.754 87.7132 100.571 85.9421L98.8109 86.1242C98.9816 87.7743 98.9816 89.4829 98.8109 91.133L100.571 91.3151ZM100.574 85.9831C100.481 84.3273 100.085 82.9301 99.2578 81.9354C98.4004 80.9045 97.1838 80.4293 95.7388 80.4293V82.1989C96.7713 82.1989 97.4423 82.52 97.8973 83.067C98.3824 83.6502 98.7243 84.6126 98.8076 86.0831L100.574 85.9831ZM95.7388 80.4293C94.2925 80.4293 93.079 80.9051 92.2155 81.9317C91.3828 82.9216 90.97 84.3139 90.8453 85.9665L92.6099 86.0997C92.7212 84.626 93.0752 83.6587 93.5698 83.0708C94.0335 82.5194 94.7076 82.1989 95.7388 82.1989V80.4293ZM90.8449 85.9722C90.7241 87.7234 90.7241 89.5337 90.8449 91.2849L92.6103 91.1632C92.4952 89.4931 92.4952 87.7641 92.6103 86.094L90.8449 85.9722ZM90.8453 91.2906C90.97 92.9433 91.3828 94.3355 92.2155 95.3255C93.079 96.352 94.2925 96.8279 95.7388 96.8279V95.0582C94.7076 95.0582 94.0335 94.7377 93.5698 94.1864C93.0752 93.5984 92.7212 92.6312 92.6099 91.1575L90.8453 91.2906ZM95.7388 96.8279C97.1838 96.8279 98.4004 96.3527 99.2578 95.3218C100.085 94.327 100.481 92.9299 100.574 91.274L98.8076 91.174C98.7243 92.6446 98.3824 93.6069 97.8973 94.1901C97.4423 94.7371 96.7713 95.0582 95.7388 95.0582V96.8279Z" fill="#051C2C"/>
</svg>
